<svg xmlns="http://www.w3.org/2000/svg" version="1.1" xmlns:xlink="http://www.w3.org/1999/xlink" xmlns:svgjs="http://svgjs.dev/svgjs" width="1000" height="295" viewBox="0 0 1000 295"><g transform="matrix(1,0,0,1,-0.6059887325180853,0.23491124260354468)"><svg viewBox="0 0 396 117" data-background-color="#ffffff" preserveAspectRatio="xMidYMid meet" height="295" width="1000" xmlns="http://www.w3.org/2000/svg" xmlns:xlink="http://www.w3.org/1999/xlink"><defs></defs><g id="tight-bounds" transform="matrix(1,0,0,1,0.23997153807715677,-0.09316818774445323)"><svg viewBox="0 0 395.52 117.1863363754889" height="117.1863363754889" width="395.52"><g><svg viewBox="0 0 395.52 117.1863363754889" height="117.1863363754889" width="395.52"><g><svg viewBox="0 0 395.52 117.1863363754889" height="117.1863363754889" width="395.52"><g><svg viewBox="0 0 395.52 117.1863363754889" height="117.1863363754889" width="395.52"><g><svg viewBox="0 0 395.52 117.1863363754889" height="117.1863363754889" width="395.52"><g transform="matrix(1,0,0,1,0,0)"><svg width="395.52" viewBox="2.2499992847442627 -36.500003814697266 153.3999786376953 42.45000457763672" height="117.1863363754889" data-palette-color="#7a26c1"><svg></svg><g class="undefined-text-0" data-fill-palette-color="primary" id="text-0"><path d="M27.75 5.95v0h-23.2c-0.8 0-1.383-0.183-1.75-0.55-0.367-0.367-0.55-0.95-0.55-1.75v0-32.4c0-0.433 0.06-0.8 0.18-1.1 0.113-0.3 0.287-0.55 0.52-0.75v0l6.45-5.45c0.167-0.133 0.393-0.243 0.68-0.33 0.28-0.08 0.587-0.12 0.92-0.12v0h23.2c0.8 0 1.383 0.183 1.75 0.55 0.367 0.367 0.55 0.95 0.55 1.75v0 5.85c0 0.433-0.057 0.8-0.17 1.1-0.12 0.3-0.297 0.55-0.53 0.75v0l-4.3 3.55c0.333 0.167 0.577 0.417 0.73 0.75 0.147 0.333 0.22 0.767 0.22 1.3v0 5.35c0 0.433-0.06 0.8-0.18 1.1-0.113 0.3-0.287 0.55-0.52 0.75v0l-4.45 3.75h6.9c0.8 0 1.383 0.183 1.75 0.55 0.367 0.367 0.55 0.95 0.55 1.75v0 5.85c0 0.433-0.057 0.8-0.17 1.1-0.12 0.3-0.297 0.55-0.53 0.75v0l-6.5 5.4c-0.133 0.133-0.34 0.25-0.62 0.35-0.287 0.1-0.597 0.15-0.93 0.15zM11 0h23.2c0.633 0 1.093-0.143 1.38-0.43 0.28-0.28 0.42-0.737 0.42-1.37v0-5.85c0-0.633-0.14-1.093-0.42-1.38-0.287-0.28-0.747-0.42-1.38-0.42v0h-13.8v-4.3h9.75c0.633 0 1.093-0.143 1.38-0.43 0.28-0.28 0.42-0.737 0.42-1.37v0-5.35c0-0.633-0.14-1.093-0.42-1.38-0.287-0.28-0.747-0.42-1.38-0.42v0h-9.75v-3.85h13.8c0.633 0 1.093-0.143 1.38-0.43 0.28-0.28 0.42-0.737 0.42-1.37v0-5.85c0-0.633-0.14-1.093-0.42-1.38-0.287-0.28-0.747-0.42-1.38-0.42v0h-23.2c-0.633 0-1.09 0.14-1.37 0.42-0.287 0.287-0.43 0.747-0.43 1.38v0 32.4c0 0.633 0.143 1.09 0.43 1.37 0.28 0.287 0.737 0.43 1.37 0.43zM15.15-5h16.35v0.5h-16.85v-27h16.85v0.5h-16.35v12.55h12.3v0.5h-12.3zM53.5-31.1v0l18.4 20.7v-21.1h0.5v27h-0.5v-5.15l-18.9-21.2c-0.033-0.033-0.073-0.067-0.12-0.1-0.053-0.033-0.097-0.05-0.13-0.05v0c-0.033 0-0.057 0.017-0.07 0.05-0.02 0.033-0.03 0.067-0.03 0.1v0 26.35h-0.5v-26.45c0-0.2 0.067-0.35 0.2-0.45 0.133-0.1 0.267-0.15 0.4-0.15v0c0.133 0 0.25 0.033 0.35 0.1 0.1 0.067 0.233 0.183 0.4 0.35zM48.7 0h7.5c0.633 0 1.093-0.143 1.38-0.43 0.28-0.28 0.42-0.737 0.42-1.37v0-16.5l8.55 10.35v6.15c0 0.633 0.143 1.09 0.43 1.37 0.28 0.287 0.737 0.43 1.37 0.43v0h7.5c0.633 0 1.093-0.143 1.38-0.43 0.28-0.28 0.42-0.737 0.42-1.37v0-32.4c0-0.633-0.14-1.093-0.42-1.38-0.287-0.28-0.747-0.42-1.38-0.42v0h-7.5c-0.633 0-1.09 0.14-1.37 0.42-0.287 0.287-0.43 0.747-0.43 1.38v0 10.65l-9.7-11.1c-0.433-0.5-0.873-0.85-1.32-1.05-0.453-0.2-0.997-0.3-1.63-0.3v0h-5.2c-0.633 0-1.09 0.14-1.37 0.42-0.287 0.287-0.43 0.747-0.43 1.38v0 32.4c0 0.633 0.143 1.09 0.43 1.37 0.28 0.287 0.737 0.43 1.37 0.43zM57.8 0.05v0l-6.5 5.4c-0.133 0.133-0.34 0.25-0.62 0.35-0.287 0.1-0.597 0.15-0.93 0.15v0h-7.5c-0.8 0-1.383-0.183-1.75-0.55-0.367-0.367-0.55-0.95-0.55-1.75v0-32.4c0-0.433 0.06-0.8 0.18-1.1 0.113-0.3 0.287-0.55 0.52-0.75v0l6.45-5.45c0.167-0.133 0.393-0.243 0.68-0.33 0.28-0.08 0.587-0.12 0.92-0.12v0h5.2c0.733 0 1.35 0.117 1.85 0.35 0.5 0.233 1 0.617 1.5 1.15v0l3.45 4 6.05-5.05c0.167-0.133 0.393-0.243 0.68-0.33 0.28-0.08 0.587-0.12 0.92-0.12v0h7.5c0.8 0 1.383 0.183 1.75 0.55 0.367 0.367 0.55 0.95 0.55 1.75v0 32.4c0 0.433-0.057 0.8-0.17 1.1-0.12 0.3-0.297 0.55-0.53 0.75v0l-6.5 5.4c-0.133 0.133-0.34 0.25-0.62 0.35-0.287 0.1-0.597 0.15-0.93 0.15v0h-7.5c-0.8 0-1.383-0.183-1.75-0.55-0.367-0.367-0.55-0.95-0.55-1.75v0-5.95l-1.1-1.35v1.85c0 0.433-0.057 0.8-0.17 1.1-0.12 0.3-0.297 0.55-0.53 0.75zM105.4 5.95v0h-21.3c-0.8 0-1.383-0.183-1.75-0.55-0.367-0.367-0.55-0.95-0.55-1.75v0-5.95c0-0.433 0.06-0.8 0.18-1.1 0.113-0.3 0.287-0.55 0.52-0.75v0l6.05-5.1v-11.15h-4.45c-0.8 0-1.383-0.183-1.75-0.55-0.367-0.367-0.55-0.95-0.55-1.75v0-6.05c0-0.433 0.06-0.8 0.18-1.1 0.113-0.3 0.287-0.55 0.52-0.75v0l6.45-5.45c0.167-0.133 0.393-0.243 0.68-0.33 0.28-0.08 0.587-0.12 0.92-0.12v0h21.3c0.8 0 1.383 0.183 1.75 0.55 0.367 0.367 0.55 0.95 0.55 1.75v0 6.05c0 0.433-0.057 0.8-0.17 1.1-0.12 0.3-0.297 0.55-0.53 0.75v0l-5.95 5v11.25h4.35c0.8 0 1.383 0.183 1.75 0.55 0.367 0.367 0.55 0.95 0.55 1.75v0 5.95c0 0.433-0.057 0.8-0.17 1.1-0.12 0.3-0.297 0.55-0.53 0.75v0l-6.5 5.4c-0.133 0.133-0.34 0.25-0.62 0.35-0.287 0.1-0.597 0.15-0.93 0.15zM90.55 0v0h21.3c0.633 0 1.093-0.143 1.38-0.43 0.28-0.28 0.42-0.737 0.42-1.37v0-5.95c0-0.633-0.14-1.093-0.42-1.38-0.287-0.28-0.747-0.42-1.38-0.42v0h-4.85v-16.8h4.85c0.633 0 1.093-0.143 1.38-0.43 0.28-0.28 0.42-0.737 0.42-1.37v0-6.05c0-0.633-0.14-1.093-0.42-1.38-0.287-0.28-0.747-0.42-1.38-0.42v0h-21.3c-0.633 0-1.09 0.14-1.37 0.42-0.287 0.287-0.43 0.747-0.43 1.38v0 6.05c0 0.633 0.143 1.09 0.43 1.37 0.28 0.287 0.737 0.43 1.37 0.43v0h4.95v16.8h-4.95c-0.633 0-1.09 0.14-1.37 0.42-0.287 0.287-0.43 0.747-0.43 1.38v0 5.95c0 0.633 0.143 1.09 0.43 1.37 0.28 0.287 0.737 0.43 1.37 0.43zM109.15-5v0.5h-15.9v-0.5h7.75v-26h-7.75v-0.5h15.9v0.5h-7.65v26zM139.65 5.95h-13c-0.767 0-1.383-0.14-1.85-0.42-0.467-0.287-0.85-0.797-1.15-1.53v0l-4.9-12.25c-0.3-0.767-0.557-1.427-0.77-1.98-0.22-0.547-0.397-1.08-0.53-1.6-0.133-0.513-0.223-1.063-0.27-1.65-0.053-0.58-0.08-1.27-0.08-2.07v0-13.2c0-0.433 0.06-0.8 0.18-1.1 0.113-0.3 0.287-0.55 0.52-0.75v0l6.45-5.45c0.167-0.133 0.393-0.243 0.68-0.33 0.28-0.08 0.587-0.12 0.92-0.12v0h7.95c0.8 0 1.41 0.19 1.83 0.57 0.413 0.387 0.62 0.963 0.62 1.73v0 13.8c0 0.333 0.033 0.65 0.1 0.95 0.067 0.3 0.15 0.617 0.25 0.95v0l0.15 0.35v-10.6c0-0.433 0.06-0.8 0.18-1.1 0.113-0.3 0.287-0.55 0.52-0.75v0l6.45-5.45c0.167-0.133 0.393-0.243 0.68-0.33 0.28-0.08 0.587-0.12 0.92-0.12v0h7.85c0.833 0 1.427 0.183 1.78 0.55 0.347 0.367 0.52 0.95 0.52 1.75v0 13.2c0 0.8-0.023 1.49-0.07 2.07-0.053 0.587-0.147 1.137-0.28 1.65-0.133 0.52-0.307 1.053-0.52 1.6-0.22 0.553-0.48 1.213-0.78 1.98v0l-4.9 12.25c-0.1 0.3-0.233 0.567-0.4 0.8-0.167 0.233-0.333 0.417-0.5 0.55v0l-6.45 5.35c-0.267 0.233-0.573 0.41-0.92 0.53-0.353 0.113-0.747 0.17-1.18 0.17zM133.1 0h13c0.633 0 1.16-0.117 1.58-0.35 0.413-0.233 0.737-0.667 0.97-1.3v0l4.9-12.25c0.3-0.733 0.55-1.377 0.75-1.93 0.2-0.547 0.367-1.07 0.5-1.57 0.133-0.5 0.227-1.027 0.28-1.58 0.047-0.547 0.07-1.22 0.07-2.02v0-13.2c0-0.633-0.14-1.093-0.42-1.38-0.287-0.28-0.747-0.42-1.38-0.42v0h-7.85c-0.633 0-1.09 0.14-1.37 0.42-0.287 0.287-0.43 0.747-0.43 1.38v0 13.75c0 0.333-0.033 0.667-0.1 1-0.067 0.333-0.167 0.683-0.3 1.05v0l-2.35 7.05c-0.1 0.333-0.217 0.557-0.35 0.67-0.133 0.12-0.333 0.18-0.6 0.18v0h-0.55c-0.267 0-0.467-0.06-0.6-0.18-0.133-0.113-0.25-0.337-0.35-0.67v0l-2.35-7c-0.133-0.367-0.233-0.717-0.3-1.05-0.067-0.333-0.1-0.667-0.1-1v0-13.8c0-0.633-0.167-1.093-0.5-1.38-0.333-0.28-0.817-0.42-1.45-0.42v0h-7.95c-0.633 0-1.09 0.14-1.37 0.42-0.287 0.287-0.43 0.747-0.43 1.38v0 13.2c0 0.8 0.027 1.473 0.08 2.02 0.047 0.553 0.137 1.08 0.27 1.58 0.133 0.5 0.3 1.023 0.5 1.57 0.2 0.553 0.45 1.197 0.75 1.93v0l4.9 12.25c0.233 0.633 0.56 1.067 0.98 1.3 0.413 0.233 0.937 0.35 1.57 0.35zM129.7-20.7v-10.8h0.5v10.8c0 0.867 0.067 1.69 0.2 2.47 0.133 0.787 0.333 1.513 0.6 2.18v0l3.3 8c0.333 0.867 0.71 1.59 1.13 2.17 0.413 0.587 1.087 0.88 2.02 0.88v0h4.4c0.933 0 1.61-0.293 2.03-0.88 0.413-0.58 0.787-1.303 1.12-2.17v0l3.3-8c0.267-0.667 0.467-1.393 0.6-2.18 0.133-0.78 0.2-1.603 0.2-2.47v0-10.8h0.5v10.8c0 0.933-0.057 1.79-0.17 2.57-0.12 0.787-0.33 1.547-0.63 2.28v0l-3.3 8c-0.4 0.967-0.85 1.767-1.35 2.4-0.5 0.633-1.267 0.95-2.3 0.95v0h-4.4c-1.033 0-1.8-0.317-2.3-0.95-0.5-0.633-0.95-1.433-1.35-2.4v0l-3.3-8c-0.3-0.733-0.507-1.493-0.62-2.28-0.12-0.78-0.18-1.637-0.18-2.57z" data-fill-palette-color="primary" fill="#7a26c1" opacity="1"></path></g></svg></g></svg></g></svg></g></svg></g></svg></g></svg><rect width="395.52" height="117.1863363754889" fill="none" stroke="none" visibility="hidden"></rect></g></svg></g></svg>